<svg width="21" height="20" viewBox="0 0 21 20" fill="none" xmlns="http://www.w3.org/2000/svg">
<path d="M15.5 17.5L5.5 17.5C4.672 17.5 4 16.828 4 16L4 11C4 10.172 4.672 9.5 5.5 9.5L15.5 9.5C16.328 9.5 17 10.172 17 11V16C17 16.828 16.328 17.5 15.5 17.5Z" stroke="#171A1F" stroke-linecap="round" stroke-linejoin="round"/>
<path d="M7 7.5V6C7 4.067 8.567 2.5 10.5 2.5C12.433 2.5 14 4.067 14 6V7.5" stroke="#171A1F" stroke-linecap="round" stroke-linejoin="round"/>
<path d="M10.5 15C11.3284 15 12 14.3284 12 13.5C12 12.6716 11.3284 12 10.5 12C9.67157 12 9 12.6716 9 13.5C9 14.3284 9.67157 15 10.5 15Z" stroke="#171A1F" stroke-linecap="round" stroke-linejoin="round"/>
</svg>
